<?xml version="1.0" encoding="UTF-8"?>
<svg version="1.1" xmlns="http://www.w3.org/2000/svg" width="1024" height="1024">
<path d="M0 0 C0.57766113 0.43876465 1.15532227 0.8775293 1.75048828 1.32958984 C21.8337582 16.65909217 41.68821505 33.69524597 58.16796875 52.890625 C60.15311587 55.17629546 62.2003983 57.39701378 64.25 59.625 C69.34943853 65.27853712 74.00829093 71.2371607 78.65332031 77.26367188 C79.8983024 78.86887721 81.16315465 80.45861837 82.4296875 82.046875 C96.92380827 100.39025408 109.29040139 120.53642758 120.234375 141.171875 C124.32182166 148.77249896 128.9900843 154.57527565 134.92578125 160.73046875 C139.54327545 165.55357103 143.55707086 170.84273455 147.59375 176.15234375 C149.04305493 178.0565694 150.50565374 179.95010718 151.96875 181.84375 C205.28710425 251.34526634 233.19876129 338.16321289 233.25 425.4375 C233.25101212 426.99377106 233.25101212 426.99377106 233.25204468 428.58148193 C233.15980651 518.29043119 203.13628189 606.78239488 147 677 C146.27554688 677.90621094 145.55109375 678.81242188 144.8046875 679.74609375 C142.56008116 682.51765965 140.28169996 685.25892284 138 688 C137.23558594 688.95132813 136.47117187 689.90265625 135.68359375 690.8828125 C128.62365372 699.52569262 120.8040495 707.41241981 112.9375 715.3125 C112.38305206 715.87212433 111.82860413 716.43174866 111.25735474 717.0083313 C104.15993595 724.15788209 96.89142033 730.72637368 89 737 C87.89809978 737.93469458 86.80177485 738.87606468 85.71484375 739.828125 C15.53286497 801.02760017 -79.65650855 832.19451555 -171.9375 832.25 C-173.45875488 832.25101212 -173.45875488 832.25101212 -175.01074219 832.25204468 C-192.51733363 832.23364239 -209.63932827 831.41414849 -227 829 C-228.24056152 828.82839355 -229.48112305 828.65678711 -230.75927734 828.47998047 C-307.06323863 817.55151091 -385.01244823 784.63871173 -441.2109375 730.88525391 C-447.08977664 725.34423906 -452.92962033 721.49365888 -460.125 717.875 C-484.87202142 704.92458617 -507.83680166 689.42595393 -529.22558594 671.48242188 C-530.43673008 670.47057993 -531.65936374 669.47237285 -532.89160156 668.48632812 C-540.12261019 662.58424104 -543.9739869 655.15399133 -545 645.8125 C-545.31695999 636.06281065 -542.7828836 628.88456365 -537 621 C-535.36320553 619.3039872 -533.70240415 617.63014591 -532 616 C-532.46148438 615.10023438 -532.92296875 614.20046875 -533.3984375 613.2734375 C-535.6405437 608.86927945 -537.8295406 604.43985462 -540 600 C-540.3904248 599.20223145 -540.78084961 598.40446289 -541.18310547 597.58251953 C-558.56632058 561.68007155 -568.89805594 523.30879291 -575 484 C-575.17934082 482.89156738 -575.35868164 481.78313477 -575.54345703 480.64111328 C-581.52445468 442.10020588 -580.15118654 400.44870664 -574 362 C-573.81808105 360.83742676 -573.63616211 359.67485352 -573.44873047 358.47705078 C-564.11221159 300.73080666 -541.17778532 246.1865307 -508.80200195 197.69458008 C-507.73113091 196.09009758 -507.73113091 196.09009758 -506.6386261 194.45320129 C-506.09787949 193.64364487 -505.55713287 192.83408844 -505 192 C-505.67622847 192.00368717 -506.35245693 192.00737434 -507.04917717 192.01117325 C-523.53442193 192.09966819 -540.01959104 192.16577937 -556.50501823 192.20724869 C-564.47739083 192.22783809 -572.44960446 192.25588898 -580.421875 192.30175781 C-587.37382847 192.341737 -594.32566677 192.36745912 -601.27773201 192.37635398 C-604.95584703 192.3815501 -608.63363267 192.39368616 -612.31164169 192.42292023 C-616.42649441 192.45535852 -620.54078141 192.45595235 -624.65576172 192.45410156 C-625.86345718 192.46848267 -627.07115265 192.48286377 -628.31544495 192.49768066 C-638.89815993 192.44631306 -648.36710015 189.66565908 -656 182 C-663.89533963 171.54306129 -664.29823273 161.36368371 -664.2746582 148.74658203 C-664.27901081 147.20499425 -664.28419578 145.66340862 -664.29014587 144.12182617 C-664.30348847 139.95231539 -664.30411982 135.78289552 -664.30158257 131.61336756 C-664.30050959 128.12450051 -664.30540461 124.63565162 -664.310188 121.14678848 C-664.3212669 112.91148438 -664.32172977 104.6762259 -664.31567383 96.44091797 C-664.30963541 87.96349759 -664.32194539 79.48624323 -664.3432439 71.00885117 C-664.3608944 63.71346646 -664.36685581 56.41813444 -664.36360615 49.12272918 C-664.36179857 44.77301825 -664.36437676 40.42342576 -664.37832069 36.07373428 C-664.39095064 31.98112168 -664.38890644 27.88876675 -664.37590981 23.79615784 C-664.37355564 22.30067226 -664.37623678 20.80516825 -664.38453293 19.30970383 C-664.44772523 7.0257062 -663.16652471 -3.35537127 -655 -13 C-648.23240714 -19.53915091 -640.93537632 -22.0959359 -631.625 -22.4375 C-621.71147067 -22.14864425 -614.13138615 -19.16605771 -606.9453125 -12.2890625 C-600.83616489 -5.10038679 -598.8688135 2.40468846 -598.79467773 11.61425781 C-598.78477814 12.37562042 -598.77487854 13.13698303 -598.76467896 13.92141724 C-598.73315224 16.43195512 -598.70834153 18.94251191 -598.68359375 21.453125 C-598.66301659 23.19619227 -598.64201992 24.93925464 -598.62062073 26.68231201 C-598.56547871 31.26566592 -598.51603477 35.84906428 -598.46777344 40.43249512 C-598.4175009 45.11128689 -598.36184488 49.79001428 -598.30664062 54.46875 C-598.19915533 63.6457783 -598.09768903 72.82286256 -598 82 C-597.31338287 81.10488708 -596.62676575 80.20977417 -595.91934204 79.28753662 C-595.00956991 78.10280233 -594.09976813 76.9180908 -593.18994141 75.73339844 C-592.51270775 74.85027481 -592.51270775 74.85027481 -591.8217926 73.9493103 C-578.32398589 56.38083426 -562.93148849 39.27427209 -546.109375 24.83203125 C-543.82370454 22.84688413 -541.60298622 20.7996017 -539.375 18.75 C-533.7255222 13.65422293 -527.77148039 8.99750452 -521.74951172 4.35546875 C-520.10587542 3.08202907 -518.47504329 1.79410392 -516.84765625 0.5 C-456.54142836 -46.95408096 -381.87421594 -75.14762342 -306 -84 C-305.04899414 -84.11714355 -304.09798828 -84.23428711 -303.11816406 -84.35498047 C-196.33879755 -97.03809266 -85.14456009 -64.82515309 0 0 Z M-309 -18 C-310.13679199 -17.83371094 -311.27358398 -17.66742188 -312.44482422 -17.49609375 C-377.21335968 -7.70602821 -437.31294291 19.74672208 -488 61 C-488.5460791 61.44021484 -489.0921582 61.88042969 -489.65478516 62.33398438 C-499.11024537 70.01952605 -507.74696629 78.53862492 -516.375 87.125 C-516.93312378 87.67785675 -517.49124756 88.2307135 -518.06628418 88.80032349 C-525.18307439 95.86515008 -531.79000465 103.10851482 -538 111 C-539.16623476 112.44150876 -540.334063 113.88173064 -541.50390625 115.3203125 C-542.52401837 116.58807448 -543.54356724 117.85628994 -544.5625 119.125 C-545.09423828 119.78242188 -545.62597656 120.43984375 -546.17382812 121.1171875 C-548.78751232 123.7735936 -548.78751232 123.7735936 -550 127 C-549.10765656 127.00586624 -548.21531311 127.01173248 -547.29592896 127.01777649 C-538.85180429 127.07588242 -530.40793911 127.14806067 -521.96406746 127.23571491 C-517.62385063 127.28028243 -513.28372473 127.31956784 -508.94335938 127.34643555 C-504.74806847 127.37260534 -500.55313006 127.41310235 -496.35805893 127.46318626 C-494.76428516 127.47976311 -493.17045054 127.49133419 -491.57660294 127.49761391 C-470.29212881 127.58989266 -470.29212881 127.58989266 -462.375 134.1875 C-461.72273438 134.71730469 -461.07046875 135.24710938 -460.3984375 135.79296875 C-459.70621094 136.39044922 -459.70621094 136.39044922 -459 137 C-455.99924121 135.64791033 -453.85681087 134.12439811 -451.49609375 131.83984375 C-450.84390869 131.21577637 -450.19172363 130.59170898 -449.51977539 129.94873047 C-448.83262451 129.28502441 -448.14547363 128.62131836 -447.4375 127.9375 C-441.17292337 121.98456935 -434.82060716 116.31606146 -428 111 C-427.42830078 110.54512207 -426.85660156 110.09024414 -426.26757812 109.62158203 C-407.99302085 95.08845987 -388.46890029 82.22315682 -368 71 C-367.15775879 70.53174805 -366.31551758 70.06349609 -365.44775391 69.58105469 C-323.44858113 46.35406336 -277.42763314 31.90670403 -230 25 C-229.04786621 24.85046875 -228.09573242 24.7009375 -227.11474609 24.546875 C-190.99836712 19.05154795 -151.06506419 19.17286937 -115 25 C-113.81293457 25.18755859 -112.62586914 25.37511719 -111.40283203 25.56835938 C-99.1346492 27.54663387 -86.90172843 29.73483448 -74.88183594 32.91967773 C-71.67509283 33.74753756 -70.22664443 34.07554814 -67 33 C-112.54058376 5.59401489 -161.14538346 -11.97774279 -214 -19 C-214.82580566 -19.11714355 -215.65161133 -19.23428711 -216.50244141 -19.35498047 C-246.59680004 -23.48919222 -279.0274852 -22.46315038 -309 -18 Z " fill="#A4D5A6" transform="translate(770,171)"/>
<path d="M0 0 C0.57766113 0.43876465 1.15532227 0.8775293 1.75048828 1.32958984 C21.8337582 16.65909217 41.68821505 33.69524597 58.16796875 52.890625 C60.15311587 55.17629546 62.2003983 57.39701378 64.25 59.625 C69.34943853 65.27853712 74.00829093 71.2371607 78.65332031 77.26367188 C79.8983024 78.86887721 81.16315465 80.45861837 82.4296875 82.046875 C96.92380827 100.39025408 109.29040139 120.53642758 120.234375 141.171875 C124.32182166 148.77249896 128.9900843 154.57527565 134.92578125 160.73046875 C139.54327545 165.55357103 143.55707086 170.84273455 147.59375 176.15234375 C149.04305493 178.0565694 150.50565374 179.95010718 151.96875 181.84375 C205.28710425 251.34526634 233.19876129 338.16321289 233.25 425.4375 C233.25101212 426.99377106 233.25101212 426.99377106 233.25204468 428.58148193 C233.15980651 518.29043119 203.13628189 606.78239488 147 677 C146.27554688 677.90621094 145.55109375 678.81242188 144.8046875 679.74609375 C142.56008116 682.51765965 140.28169996 685.25892284 138 688 C137.23558594 688.95132813 136.47117187 689.90265625 135.68359375 690.8828125 C128.62365372 699.52569262 120.8040495 707.41241981 112.9375 715.3125 C112.38305206 715.87212433 111.82860413 716.43174866 111.25735474 717.0083313 C104.15993595 724.15788209 96.89142033 730.72637368 89 737 C87.89809978 737.93469458 86.80177485 738.87606468 85.71484375 739.828125 C15.53286497 801.02760017 -79.65650855 832.19451555 -171.9375 832.25 C-173.45875488 832.25101212 -173.45875488 832.25101212 -175.01074219 832.25204468 C-192.51733363 832.23364239 -209.63932827 831.41414849 -227 829 C-228.24056152 828.82839355 -229.48112305 828.65678711 -230.75927734 828.47998047 C-307.06323863 817.55151091 -385.01244823 784.63871173 -441.2109375 730.88525391 C-447.08977664 725.34423906 -452.92962033 721.49365888 -460.125 717.875 C-484.87202142 704.92458617 -507.83680166 689.42595393 -529.22558594 671.48242188 C-530.43673008 670.47057993 -531.65936374 669.47237285 -532.89160156 668.48632812 C-540.12261019 662.58424104 -543.9739869 655.15399133 -545 645.8125 C-545.34363405 635.24231663 -542.20732237 626.75929854 -535.046875 618.83984375 C-532.01599139 616.11551898 -528.69817218 614.63879787 -525 613 C-524.0925 612.5875 -523.185 612.175 -522.25 611.75 C-513.07481908 609.63265056 -504.31323971 610.56780314 -496 615 C-492.10901645 617.67127109 -488.44604611 620.58025335 -484.79052734 623.55859375 C-428.5648364 668.8212716 -359.80943907 695.83477664 -288 702 C-287.31244629 702.05929687 -286.62489258 702.11859375 -285.91650391 702.1796875 C-280.61500992 702.60984977 -275.31599065 702.83927963 -270 703 C-268.94425781 703.03399902 -267.88851563 703.06799805 -266.80078125 703.10302734 C-236.11848576 703.94910968 -205.77357082 700.99794996 -175.93798828 693.70849609 C-173.29754989 693.07175418 -170.65327847 692.48753687 -167.99609375 691.92578125 C-143.13518088 686.48150389 -118.72970806 676.25308241 -96 665 C-94.75355713 664.38608398 -94.75355713 664.38608398 -93.48193359 663.75976562 C-69.15773039 651.66340511 -46.72510493 636.53900671 -26 619 C-24.54980469 617.82630859 -24.54980469 617.82630859 -23.0703125 616.62890625 C-14.82268839 609.87015539 -7.23842453 602.45349528 0.3125 594.9375 C0.82428802 594.43088837 1.33607605 593.92427673 1.8633728 593.40231323 C8.71405976 586.60629222 15.00351666 579.57628701 21 572 C22.00111682 570.78025728 23.0046537 569.56249253 24.01171875 568.34765625 C37.43686141 551.94952262 48.88783049 534.61108743 59 516 C59.49741699 515.09942871 59.99483398 514.19885742 60.50732422 513.27099609 C68.92551702 497.98952885 75.770251 482.28806443 82 466 C82.34401855 465.11248047 82.68803711 464.22496094 83.04248047 463.31054688 C88.70493317 448.57019381 92.46033384 433.37002727 96 418 C96.21285645 417.08186523 96.42571289 416.16373047 96.64501953 415.21777344 C99.89019863 400.95873629 101.60396015 386.54535881 103 372 C103.07347656 371.24750977 103.14695312 370.49501953 103.22265625 369.71972656 C103.67420587 364.8175309 103.88440338 359.91957723 104 355 C104.04084717 353.29408691 104.04084717 353.29408691 104.08251953 351.55371094 C104.48490114 331.47512185 103.54449439 311.94565159 101 292 C100.89316895 291.12311523 100.78633789 290.24623047 100.67626953 289.34277344 C92.4543995 223.48680951 62.66965429 159.42093188 20 109 C18.82630859 107.54980469 18.82630859 107.54980469 17.62890625 106.0703125 C10.87015539 97.82268839 3.45349528 90.23842453 -4.0625 82.6875 C-4.56911163 82.17571198 -5.07572327 81.66392395 -5.59768677 81.1366272 C-12.39514213 74.28449435 -19.43521459 68.01265553 -27 62 C-28.31755567 60.90423727 -29.63175332 59.8044147 -30.94140625 58.69921875 C-47.13145313 45.1668124 -64.65185738 34.62901146 -83.15869141 24.55419922 C-85.5702313 23.235084 -87.9657334 21.89315454 -90.35546875 20.53515625 C-128.05373865 -0.58915651 -171.42594111 -12.34361629 -214 -18 C-215.2387085 -18.17571533 -215.2387085 -18.17571533 -216.50244141 -18.35498047 C-246.59680004 -22.48919222 -279.0274852 -21.46315038 -309 -17 C-310.70518799 -16.75056641 -310.70518799 -16.75056641 -312.44482422 -16.49609375 C-377.20138759 -6.70783784 -437.32993361 20.73685548 -488 62 C-488.55139648 62.44553223 -489.10279297 62.89106445 -489.67089844 63.35009766 C-498.92853328 70.89466282 -507.41725336 79.209848 -515.875 87.625 C-516.40920563 88.1539386 -516.94341125 88.6828772 -517.49380493 89.22784424 C-524.46952066 96.15032251 -530.90629138 103.27478642 -537 111 C-538.07299459 112.34150719 -539.14712597 113.68210563 -540.22216797 115.02197266 C-543.15395199 118.67667987 -546.07853169 122.33704228 -549 126 C-548.12018463 126.00586624 -547.24036926 126.01173248 -546.33389282 126.01777649 C-538.00749501 126.07588731 -529.68136021 126.14806826 -521.35521889 126.23571491 C-517.0755365 126.28027861 -512.79594623 126.3195648 -508.51611328 126.34643555 C-504.3791745 126.37260924 -500.24259294 126.41310883 -496.10587692 126.46318626 C-494.53443245 126.47976052 -492.96292633 126.49133319 -491.39140701 126.49761391 C-480.35766561 126.54613709 -469.84257919 126.7960818 -460.88671875 134.0625 C-454.34913727 140.77604123 -449.7540938 149.22492414 -449.625 158.6875 C-449.82169002 168.02449112 -452.65411321 175.53858569 -459.15234375 182.28515625 C-469.20750415 191.61753556 -479.33065664 192.44787955 -492.64233398 192.40405273 C-494.21362796 192.40976338 -495.7849178 192.41673032 -497.35620117 192.42485046 C-501.60213238 192.44271995 -505.84785622 192.4416253 -510.09381366 192.43590808 C-513.64735704 192.43280732 -517.20086111 192.43891849 -520.75439888 192.44494683 C-529.14171943 192.45896994 -537.52893807 192.45744913 -545.91625977 192.44604492 C-554.54996367 192.43456465 -563.1833569 192.44864284 -571.81701988 192.4754414 C-579.24831617 192.49763857 -586.67951522 192.50422677 -594.11084229 192.49836498 C-598.54105166 192.49500395 -602.97106192 192.49735352 -607.40124321 192.51461601 C-611.56863122 192.53014744 -615.73556091 192.52606148 -619.90293121 192.50731087 C-621.42582935 192.50364212 -622.94876192 192.5066831 -624.47162819 192.51719666 C-635.80904604 192.58944847 -645.12281367 191.08829106 -654.1796875 183.828125 C-664.07527109 173.89007109 -664.29921859 161.89131619 -664.2746582 148.74658203 C-664.27901081 147.20499425 -664.28419578 145.66340862 -664.29014587 144.12182617 C-664.30348847 139.95231539 -664.30411982 135.78289552 -664.30158257 131.61336756 C-664.30050959 128.12450051 -664.30540461 124.63565162 -664.310188 121.14678848 C-664.3212669 112.91148438 -664.32172977 104.6762259 -664.31567383 96.44091797 C-664.30963541 87.96349759 -664.32194539 79.48624323 -664.3432439 71.00885117 C-664.3608944 63.71346646 -664.36685581 56.41813444 -664.36360615 49.12272918 C-664.36179857 44.77301825 -664.36437676 40.42342576 -664.37832069 36.07373428 C-664.39095064 31.98112168 -664.38890644 27.88876675 -664.37590981 23.79615784 C-664.37355564 22.30067226 -664.37623678 20.80516825 -664.38453293 19.30970383 C-664.44772523 7.0257062 -663.16652471 -3.35537127 -655 -13 C-648.23240714 -19.53915091 -640.93537632 -22.0959359 -631.625 -22.4375 C-621.71147067 -22.14864425 -614.13138615 -19.16605771 -606.9453125 -12.2890625 C-600.83616489 -5.10038679 -598.8688135 2.40468846 -598.79467773 11.61425781 C-598.78477814 12.37562042 -598.77487854 13.13698303 -598.76467896 13.92141724 C-598.73315224 16.43195512 -598.70834153 18.94251191 -598.68359375 21.453125 C-598.66301659 23.19619227 -598.64201992 24.93925464 -598.62062073 26.68231201 C-598.56547871 31.26566592 -598.51603477 35.84906428 -598.46777344 40.43249512 C-598.4175009 45.11128689 -598.36184488 49.79001428 -598.30664062 54.46875 C-598.19915533 63.6457783 -598.09768903 72.82286256 -598 82 C-597.31338287 81.10488708 -596.62676575 80.20977417 -595.91934204 79.28753662 C-595.00956991 78.10280233 -594.09976813 76.9180908 -593.18994141 75.73339844 C-592.51270775 74.85027481 -592.51270775 74.85027481 -591.8217926 73.9493103 C-578.32398589 56.38083426 -562.93148849 39.27427209 -546.109375 24.83203125 C-543.82370454 22.84688413 -541.60298622 20.7996017 -539.375 18.75 C-533.7255222 13.65422293 -527.77148039 8.99750452 -521.74951172 4.35546875 C-520.10587542 3.08202907 -518.47504329 1.79410392 -516.84765625 0.5 C-456.54142836 -46.95408096 -381.87421594 -75.14762342 -306 -84 C-305.04899414 -84.11714355 -304.09798828 -84.23428711 -303.11816406 -84.35498047 C-196.33879755 -97.03809266 -85.14456009 -64.82515309 0 0 Z " fill="#18193F" transform="translate(770,171)"/>
<path d="M0 0 C4.56997978 3.74771699 8.69079155 7.60686675 12.5 12.125 C13.00354004 12.71917725 13.50708008 13.31335449 14.02587891 13.92553711 C75.34054227 87.26651928 109.19392284 179.92194443 109.25 275.4375 C109.25101212 276.99377106 109.25101212 276.99377106 109.25204468 278.58148193 C109.15980651 368.29043119 79.13628189 456.78239488 23 527 C22.27554688 527.90621094 21.55109375 528.81242188 20.8046875 529.74609375 C18.56008116 532.51765965 16.28169996 535.25892284 14 538 C13.23558594 538.95132813 12.47117187 539.90265625 11.68359375 540.8828125 C4.62365372 549.52569262 -3.1959505 557.41241981 -11.0625 565.3125 C-11.61694794 565.87212433 -12.17139587 566.43174866 -12.74264526 567.0083313 C-19.84006405 574.15788209 -27.10857967 580.72637368 -35 587 C-36.10190022 587.93469458 -37.19822515 588.87606468 -38.28515625 589.828125 C-108.46713503 651.02760017 -203.65650855 682.19451555 -295.9375 682.25 C-297.45875488 682.25101212 -297.45875488 682.25101212 -299.01074219 682.25204468 C-316.51733363 682.23364239 -333.63932827 681.41414849 -351 679 C-352.86084229 678.74259033 -352.86084229 678.74259033 -354.75927734 678.47998047 C-436.93054706 666.71117837 -511.88254265 629.87487636 -573 574 C-572.34 573.67 -571.68 573.34 -571 573 C-569.2578125 573.64575195 -569.2578125 573.64575195 -567.125 574.73828125 C-566.31780518 575.14143555 -565.51061035 575.54458984 -564.67895508 575.95996094 C-563.7948999 576.40629883 -562.91084473 576.85263672 -562 577.3125 C-549.64119154 583.37274811 -536.92759192 588.29730775 -524 593 C-523.17935059 593.29890137 -522.35870117 593.59780273 -521.51318359 593.90576172 C-478.53968585 609.34863436 -431.58227681 617.24802711 -385.9375 617.1875 C-384.77054596 617.18709213 -384.77054596 617.18709213 -383.58001709 617.18667603 C-360.89346098 617.15057025 -338.41360641 615.5816186 -316 612 C-314.59741943 611.77957031 -314.59741943 611.77957031 -313.16650391 611.5546875 C-290.43815617 607.93837867 -268.8148414 602.30894736 -247 595 C-246.13020508 594.71398926 -245.26041016 594.42797852 -244.36425781 594.13330078 C-187.67071573 575.46972426 -136.92885812 544.13253705 -93 504 C-92.01061222 503.10395069 -91.02101987 502.20812723 -90.03125 501.3125 C-81.89287928 493.92792075 -73.95353349 486.42912511 -66.796875 478.07421875 C-64.8253757 475.79842282 -62.78865605 473.59077333 -60.75 471.375 C-55.6931693 465.76200349 -51.04324132 459.87279977 -46.44580078 453.8828125 C-45.48396311 452.63024713 -44.51880102 451.38022738 -43.55029297 450.1328125 C-15.52211306 413.99885672 6.74630029 372.43362604 21 329 C21.52289825 327.43601752 22.04633402 325.87221465 22.5703125 324.30859375 C28.20891673 307.38178249 33.03095042 290.32085009 36.25805664 272.76782227 C36.68844917 270.43234945 37.1334053 268.09998602 37.58007812 265.76757812 C39.50858396 255.5496444 40.93806986 245.34264236 42 235 C42.11206787 233.9169458 42.22413574 232.8338916 42.33959961 231.71801758 C45.09992086 203.29888994 45.12258964 174.38599242 42 146 C41.82259277 144.34701904 41.82259277 144.34701904 41.64160156 142.66064453 C38.4329452 113.91745185 32.17433376 85.42722527 23 58 C22.70158203 57.0807373 22.40316406 56.16147461 22.09570312 55.21435547 C16.54412503 38.12828821 9.86327784 21.40725079 1.671875 5.40234375 C0 2 0 2 0 0 Z " fill="#A4D5A6" transform="translate(894,321)"/>
<path d="M0 0 C6.41075071 4.57587153 10.89796854 10.76582312 13.25 18.3125 C13.65951623 21.54703644 13.64287896 24.74293834 13.61076355 27.99986267 C13.61332682 28.95731134 13.6158901 29.91476002 13.61853105 30.90122229 C13.62346036 34.09960438 13.60698981 37.29751122 13.59057617 40.49584961 C13.58972972 42.79241932 13.5902054 45.08898984 13.59190369 47.38555908 C13.59276434 53.61435596 13.57512699 59.8429795 13.55418181 66.0717361 C13.53542686 72.58334267 13.5336655 79.09495323 13.53010559 85.60658264 C13.52184099 96.53405853 13.50310291 107.46147042 13.47631836 118.38891602 C13.44876396 129.642168 13.42753715 140.89540271 13.41479492 152.14868164 C13.41400675 152.84281255 13.41321858 153.53694345 13.41240653 154.25210863 C13.4084913 157.73450268 13.4047002 161.21689685 13.40097082 164.69929111 C13.36989152 193.57040276 13.31684661 222.44144986 13.25 251.3125 C13.99930251 251.30881283 14.74860502 251.30512566 15.52061367 251.30132675 C33.77468398 251.21288934 52.02871138 251.14674841 70.2829504 251.10525131 C79.11066838 251.08464888 87.93824312 251.05657276 96.76586914 251.01074219 C104.46236681 250.97080325 112.15876071 250.94505034 119.85535914 250.93614602 C123.92857975 250.93094317 128.00150358 250.91876337 132.07462883 250.88957977 C135.91353528 250.86229886 139.75202449 250.85408035 143.59101868 250.86006927 C144.99502395 250.85897467 146.39904412 250.85109623 147.80296516 250.8356781 C159.19735466 250.71674899 167.04243116 252.54229638 175.4609375 260.390625 C182.17647451 267.60469533 184.79665468 275.60094891 184.5546875 285.4140625 C183.55605637 294.91386117 179.36749611 302.07902044 172.25 308.3125 C162.5101891 315.1370008 153.26572613 315.16928153 141.88037109 315.07299805 C140.05247458 315.07950302 138.22458568 315.0885724 136.39671326 315.09999084 C131.46482279 315.12293797 126.53371279 315.10843339 121.60184813 315.08552146 C116.42422196 315.06651126 111.24664502 315.07777828 106.06900024 315.08442688 C97.37888283 315.09075349 88.68907571 315.07256767 79.99902344 315.03979492 C69.96952138 315.00228217 59.94060627 315.00409379 49.91107309 315.0268361 C40.23715711 315.04782189 30.56345693 315.04049169 20.88954544 315.02051735 C16.78368546 315.01255617 12.67800925 315.01449289 8.572155 315.02454185 C3.73404948 315.0351327 -1.10337584 315.02085265 -5.94137383 314.98779869 C-7.71097783 314.97962763 -9.48064456 314.97983272 -11.25024223 314.98927689 C-20.70237683 315.03416241 -28.67082683 314.86563704 -36.75 309.3125 C-38.35875 308.2296875 -38.35875 308.2296875 -40 307.125 C-49.04009001 297.8794534 -51.05776788 287.82626856 -51.01069641 275.3506012 C-51.01452196 274.26797451 -51.01834751 273.18534783 -51.02228898 272.06991428 C-51.03258201 268.45354211 -51.02863381 264.8373298 -51.0246582 261.22094727 C-51.02900669 258.62356418 -51.03419029 256.02618238 -51.04014587 253.42880249 C-51.05287244 247.11288166 -51.05468915 240.79700339 -51.05234561 234.4810719 C-51.05056015 229.34594211 -51.05231698 224.2108252 -51.05657005 219.07569695 C-51.05716524 218.34390864 -51.05776043 217.61212034 -51.05837366 216.85815663 C-51.05958545 215.37137548 -51.06079958 213.88459434 -51.06201603 212.39781319 C-51.07288352 198.46602219 -51.07073272 184.53425542 -51.06463119 170.60246306 C-51.05946169 157.86673083 -51.07071972 145.13107508 -51.08972941 132.39535797 C-51.10911644 119.30612037 -51.11736235 106.21691894 -51.11360615 93.12766689 C-51.11169556 85.78390831 -51.11416796 78.44021482 -51.12832069 71.09646797 C-51.1414944 64.19109487 -51.13896274 57.28587728 -51.12590981 50.38050461 C-51.12354274 47.84772503 -51.12628333 45.31493469 -51.13453293 42.78216743 C-51.14499054 39.32172798 -51.136907 35.86180347 -51.1242218 32.40138245 C-51.13159609 31.40195368 -51.13897037 30.40252491 -51.14656812 29.37281042 C-51.06938427 19.34710206 -48.46132879 11.79505728 -41.75 4.3125 C-29.59238601 -7.31652208 -14.36349334 -8.84463432 0 0 Z " fill="#18193F" transform="translate(519.75,282.6875)"/>
<path d="M0 0 C8.89984355 5.2057989 14.02674819 12.48793718 16.90722656 22.31591797 C17.43108396 24.76186176 17.5358684 27.02227944 17.5859375 29.5234375 C17.61204102 30.52874512 17.63814453 31.53405273 17.66503906 32.56982422 C17.69307617 33.66053223 17.72111328 34.75124023 17.75 35.875 C19.85197707 98.69585244 36.33575689 157.76549579 67.21582031 212.42529297 C72.47068478 221.83048215 74.03177412 230.50718429 71.796875 241.2890625 C68.92285705 249.5192048 62.84757155 257.03172464 55.0625 261.0625 C46.64096073 264.34547294 35.96519181 265.46796106 27.4375 261.875 C26.06013809 261.12441514 24.70428319 260.33277228 23.375 259.5 C22.70210938 259.12230469 22.02921875 258.74460937 21.3359375 258.35546875 C15.19147042 254.42917801 11.99756834 248.78154831 8.50390625 242.52099609 C7.29276891 240.35278785 6.05279264 238.20243135 4.8125 236.05078125 C-29.53620798 175.75685111 -47.17181451 105.78359548 -48 36.5625 C-48.02610352 35.31227051 -48.05220703 34.06204102 -48.07910156 32.77392578 C-48.09934 22.07502037 -45.9055356 14.10321073 -38.484375 6.25390625 C-28.11606925 -3.52628132 -13.08829768 -6.08143124 0 0 Z " fill="#17183E" transform="translate(132.625,482.5)"/>
</svg>
